<svg fill="none" height="170" viewBox="0 0 270 170" width="270" xmlns="http://www.w3.org/2000/svg"><clipPath id="a"><path d="m0-.000977h270v169.903h-270z"/></clipPath><g clip-path="url(#a)"><path d="m29.5482 129.717c-.1858.382-.5156.674-.9167.812-.4012.139-.8409.112-1.2224-.074l-3.7461-1.824c-.7945-.387-1.1248-1.345-.7379-2.14l.9123-1.873c1.5627-3.208 5.0404-6.554 9.1447-8.656 4.1834-2.142 9.6494-3.304 15.0937-1.101 2.9471 1.192 5.4606 2.473 7.5414 3.873.8932-.728 1.8395-1.379 2.8211-1.921 1.8818-1.04 4.092-1.791 6.4204-1.725 2.4346.069 4.7625 1.033 6.6334 3.005.292.308.4498.719.4387 1.143-.0112.424-.1904.827-.4982 1.119l-3.0229 2.868c-.3079.292-.7191.449-1.1433.438s-.8266-.19-1.1187-.498c-.5074-.535-.9784-.696-1.4982-.711-.627-.018-1.5277.189-2.6474.808-.3419.189-.6865.407-1.0298.65 1.8856 2.875 2.4124 5.99 1.8945 9.144-.4142 2.522-2.001 4.341-3.9709 5.249-1.8701.862-4.0356.895-5.9142.169-1.9526-.754-3.6794-2.37-4.373-4.773-.675-2.338-.2293-4.901 1.0025-7.44.3172-.653.6782-1.302 1.0764-1.936-1.4042-.859-3.1702-1.742-5.3745-2.633-2.8627-1.158-6.032-.677-8.9734.829-3.0226 1.548-5.1656 3.86-5.8793 5.325zm26.1165 1.615c.0042-.047.0078-.094.0109-.14-.0055.051-.009.098-.0109.14z" fill="#fed42b" stroke="#000" stroke-linecap="square" stroke-linejoin="round" stroke-width="3.2"/><path d="m133.893 67.9404c.29.887.506 1.7674.657 2.6398.118-.0887.233-.1842.343-.2865 4.316-4.0137 4.208-11.368.673-16.9535-.946-1.495-.501-3.4739.994-4.42s3.474-.5012 4.42.9938c4.487 7.0903 5.686 18.1804-1.724 25.0714-1.424 1.3238-3.066 2.1561-4.772 2.5698-.262 1.4646-.659 2.883-1.137 4.2478-1.203 3.4313-3.004 6.732-4.6 9.6554l-.027.0495c-.31.5679-.612 1.1212-.903 1.6633-.837 1.5585-2.78 2.1429-4.338 1.3055-1.559-.8375-2.143-2.7798-1.306-4.3383.318-.5911.639-1.1791.956-1.7614l.002-.0033c1.624-2.9791 3.155-5.7957 4.17-8.6902.285-.8148.523-1.6174.704-2.4106-1.105-.3517-2.158-.8501-3.118-1.4729-1.296-.8401-2.996-2.2714-4.019-4.1645-.531-.9822-.948-2.2169-.892-3.6159.057-1.447.61-2.8066 1.593-3.9816l.017-.0203.015-.0179.015-.0174.018-.0197 1.111.9893-1.111-.9893c1.14-1.2809 2.586-2.1978 4.303-2.3738 1.69-.1731 3.125.4243 4.167 1.1399 1.96 1.3469 3.255 3.5789 3.789 5.2116zm-7.389.6481c.249.4605.748.9941 1.335 1.4545-.012-.0376-.024-.0752-.036-.1128-.097-.2974-.292-.6979-.558-1.0862-.236-.345-.479-.6087-.683-.7703-.032.0303-.067.0662-.106.1087-.04.0512-.063.0874-.074.1085.009.0431.036.14.122.2976z" fill="#e1c6ee" stroke="#000" stroke-linecap="round" stroke-width="3"/><path d="m241.872 148.031-1.505-8.396c-.741-4.136-5.209-6.384-9.01-4.624l-7.726 3.577-2.111-8.693c-.954-3.925-5.273-5.939-8.931-4.246l-6.972 3.228s0 .001-.001.001l-2.888-9.162c-.537-1.702-2.355-2.61-4.034-2.075-1.675.534-2.637 2.322-2.101 4.021l2.894 9.18c1.162 3.687 5.315 5.459 8.817 3.837l6.971-3.228 2.112 8.693c.954 3.926 5.273 5.94 8.931 4.246l7.724-3.576 1.505 8.396c.714 3.985 4.914 6.256 8.67 4.77l9.622-3.807c1.635-.647 2.473-2.497 1.819-4.156s-2.53-2.439-4.167-1.791z" fill="#29c489" stroke="#000" stroke-linecap="round" stroke-width="3"/><path d="m49.7976 182.384.3254-8.525c.1603-4.197-3.724-7.349-7.8137-6.443l-8.3115 1.843-.2042-8.943c-.0923-4.039-3.8814-6.93-7.8167-6.058l-7.5003 1.663c-.0004 0-.0009.001-.0013.001l-.863-9.567c-.1603-1.778-1.7423-3.054-3.4965-2.89-1.7507.164-3.0726 1.705-2.9126 3.479l.8647 9.586c.3473 3.85 4.0248 6.469 7.7927 5.634l7.5003-1.663.2043 8.943c.0923 4.039 3.8814 6.93 7.8166 6.058l8.3101-1.843-.3254 8.524c-.1544 4.045 3.4635 7.161 7.4502 6.513l10.213-1.661c1.7361-.283 2.9497-1.911 2.666-3.671-.2839-1.761-1.9501-2.924-3.6878-2.641z" fill="#29c489" stroke="#000" stroke-linecap="round" stroke-width="3"/><path d="m2.20702.499064h8.00569v10.6191h-8.00569z" fill="#fed42b" stroke="#000" stroke-linejoin="round" stroke-width="3.2" transform="matrix(-.533736 -.845651 -.845651 .533736 169.575 51.7094)"/><path d="m1.84371 1.31177h8.00569v10.6191h-8.00569z" fill="#f84e57" stroke="#000" stroke-linejoin="round" stroke-width="3.2" transform="matrix(-.166233 -.986086 -.986086 .166233 153.814 18.7077)"/><path d="m62.564 83.3994h144v85h-144z" fill="#ba9c80" stroke="#000" stroke-linejoin="round" stroke-width="3.2"/><path d="m152.564 83.3994h62v85h-62z" fill="#ba9c80" stroke="#000" stroke-linejoin="round" stroke-width="3.2"/><path d="m173.564 83.3994h20v85h-20z" fill="#fed42b" stroke="#000" stroke-linejoin="round" stroke-width="3.2"/><path d="m92.564 83.3994h26v85h-26z" fill="#fed42b" stroke="#000" stroke-linejoin="round" stroke-width="3.2"/><path d="m25.6813 44.6654c-4.1912-4.9104-8.0388-4.4094-10.3364-2.9258-.7435.4801-.8563 1.4708-.4241 2.2431l26.3627 47.0968-1.3613-27.8973-.0024-.0034c-2.4707-3.3846-9.2365-12.653-14.2385-18.5134z" fill="#fed5bd" stroke="#000" stroke-linecap="round" stroke-width="3.2"/><path d="m44.3829 23.7105c-2.3062-6.1037-6.1734-6.8477-8.8461-6.1645-.8059.206-1.2449 1.0202-1.1707 1.8437l6.02 66.8124 7.6212-3.4963.9885-27.0784c-1.6294-14.5405-1.8977-24.7306-4.6129-31.9169z" fill="#fed5bd" stroke="#000" stroke-linecap="round" stroke-width="3.2"/><path d="m43.5318 126.873-8.5297 41.752h38.7705l3.754-33.96c.0211-.191.0969-.372.2182-.521l22.1525-27.237c.5167-.636.9177-1.356 1.1857-2.13l5.777-16.7143c.555-1.6048.866-3.2837.923-4.9808l.627-18.5667c-.065-1.3289-2.551-2.2855-5.862-.2059-4.139 2.5996-5.5636 5.6944-7.492 17.8193-.8075 5.0767-11.0849 14.2285-21.5388 11.9145-1.3906-.3078-2.5568-1.2367-3.267-2.4712-5.6622-9.8418-2.3659-19.68 3.1411-25.4677.235-.247.5827-.3466.9157-.2735l8.1053 1.7799c.4974.1092.9324.4032 1.1941.84 1.5513 2.5887 4.8784 8.6469 11.8104 6.9846.5146-.1234.8072-.6542.6709-1.1656-1.6365-6.1427-4.4536-15.0612-6.0822-15.994-4.9233-2.8199-12.7875-7.1557-17.2371-6.516-.1289.0185-.2501.053-.3698.1044-2.6856 1.1529-8.9857 5.8806-13.3499 10.7775 2.0809-10.8292 5.2114-28.8717 6.37-39.1714.9425-8.3792-2.662-12.7281-5.4788-14.30603-.9213-.51615-1.9345.12249-2.1774 1.15023-2.4175 10.2294-11.5503 48.9398-16.8465 70.434-.4064 1.6496-.5489 3.3456-.4221 5.0399l3.0554 40.8098c.0068.092.001.185-.0175.275z" fill="#fed5bd"/><g stroke="#000"><path d="m59.0487 62.6415c2.0809-10.8292 5.2114-28.8717 6.37-39.1714.9425-8.3792-2.662-12.7281-5.4788-14.30603-.9213-.51615-1.9345.12249-2.1774 1.15023-2.4175 10.2294-11.5503 48.9398-16.8465 70.434-.4064 1.6496-.5489 3.3456-.4221 5.0399l3.0554 40.8098c.0068.092.001.185-.0175.275l-8.5297 41.752h38.7705l3.754-33.96c.0211-.191.0969-.372.2182-.521l22.1525-27.237c.5167-.636.9177-1.356 1.1857-2.13l5.777-16.7143c.555-1.6048.866-3.2837.923-4.9808l.627-18.5667c-.065-1.3289-2.551-2.2855-5.862-.2059-4.139 2.5996-5.5636 5.6944-7.492 17.8193-.8075 5.0767-11.0849 14.2285-21.5388 11.9145-1.3906-.3078-2.5568-1.2367-3.267-2.4712-5.6622-9.8418-2.3659-19.68 3.1411-25.4677.235-.247.5827-.3466.9157-.2735l8.1053 1.7799c.4974.1092.9324.4032 1.1941.84 1.5513 2.5887 4.8784 8.6469 11.8104 6.9847.5146-.1235.8072-.6543.6709-1.1657-1.6365-6.1427-4.4536-15.0612-6.0822-15.994-4.9233-2.8199-12.7875-7.1557-17.2371-6.516-.1289.0185-.2501.053-.3698.1044-2.6856 1.1529-8.9857 5.8806-13.3499 10.7775zm0 0-8.2673 8.8112" stroke-linecap="round" stroke-width="3.2"/><path d="m192.483 87.1486c.7-.3521 1.553-.1444 2.013.4904l2.789 3.8456c.275.38.37.8618.259 1.3179-.111.456-.417.8403-.837 1.051l-2.41 1.211c-3.756 1.8872-14.358 5.4425-30.027 6.8705l-2.776.253c-.88.08-1.659-.568-1.739-1.448l-.412-4.5165c-.08-.88.568-1.6585 1.448-1.7387l2.777-.2531c14.792-1.3484 24.109-4.6689 26.504-5.8722z" fill="#79cfe8" stroke-linecap="square" stroke-linejoin="round" stroke-width="3.2"/><path d="m188.225 4.61719v26.09741h41v-26.09741l-6.603 1.91202-6.916-1.91202-6.981 1.91202-6.982-1.91202-6.915 1.91202z" fill="#fcf2e7" stroke-linecap="round" stroke-linejoin="round" stroke-width="3.2"/><path d="m203.225 105.399h11v59h-11z" fill="#4f5876" stroke-width="3.2"/><path d="m181.225 46.3994c0-3.3137 2.686-6 6-6h43c3.314 0 6 2.6863 6 6v39 38.9996c0 3.314-2.686 6-6 6h-43c-3.314 0-6-2.686-6-6z" fill="#4f5876" stroke-width="3.2"/><path d="m188.225 85.3994c0-1.6568 1.343-3 3-3h35c1.657 0 3 1.3432 3 3v27.9996 28c0 1.657-1.343 3-3 3h-35c-1.657 0-3-1.343-3-3z" fill="#fdf3e8" stroke-width="3.2"/><path d="m198.225 82.8994v60.9996" stroke-linecap="round" stroke-width="3.2"/><path d="m181.225 36.3994c0-3.3137 2.686-6 6-6h43c3.314 0 6 2.6863 6 6v39 38.9996c0 3.314-2.686 6-6 6h-43c-3.314 0-6-2.686-6-6v-34.7054z" fill="#4f5876" stroke-width="3.2"/><path d="m188.225 40.3994c0-1.1046.895-2 2-2h37c1.104 0 2 .8954 2 2v16 16c0 1.1046-.896 2-2 2h-37c-1.105 0-2-.8954-2-2z" fill="#29c489" stroke-width="3.2"/><path d="m195.869 162.399c-1.453 0-2.917.264-4.11 1.058-1.708 1.137-3.534 2.898-3.534 4.942h41c0-2.044-1.826-3.805-3.535-4.942-1.192-.794-2.656-1.058-4.109-1.058z" fill="#4f5876" stroke-linecap="round" stroke-linejoin="round" stroke-width="3.2"/><path d="m191.419 83.2803h6.265" stroke-linecap="round" stroke-linejoin="round" stroke-width="3.2"/><path d="m205.592 83.2803h6.265" stroke-linecap="round" stroke-linejoin="round" stroke-width="3.2"/><path d="m219.766 83.2803h6.265" stroke-linecap="round" stroke-linejoin="round" stroke-width="3.2"/><path d="m206.651 104.688c-1.029 0-1.732.653-2.098 1.229-.379.595-.561 1.319-.561 2.036 0 .716.182 1.441.561 2.036.366.575 1.069 1.228 2.098 1.228h4.147c1.03 0 1.733-.653 2.099-1.228.378-.595.56-1.32.56-2.036 0-.717-.182-1.441-.56-2.036-.366-.576-1.069-1.229-2.099-1.229z" fill="#fed42b" stroke-linecap="round" stroke-linejoin="round" stroke-width="3.2"/><path d="m192.478 104.688c-1.029 0-1.732.653-2.098 1.229-.379.595-.561 1.319-.561 2.036 0 .716.182 1.441.561 2.035.366.576 1.069 1.229 2.098 1.229h4.147c1.03 0 1.733-.653 2.099-1.229.378-.594.56-1.319.56-2.035 0-.717-.182-1.441-.56-2.036-.366-.576-1.069-1.229-2.099-1.229z" fill="#f84e57" stroke-linecap="round" stroke-linejoin="round" stroke-width="3.2"/><path d="m220.825 104.688c-1.03 0-1.733.653-2.099 1.229-.379.595-.56 1.319-.56 2.036 0 .716.181 1.441.56 2.036.366.575 1.069 1.228 2.099 1.228h4.147c1.029 0 1.732-.653 2.098-1.228.379-.595.561-1.32.561-2.036 0-.717-.182-1.441-.561-2.036-.366-.576-1.069-1.229-2.098-1.229z" fill="#29c489" stroke-linecap="round" stroke-linejoin="round" stroke-width="3.2"/><path d="m191.419 90.707h6.265" stroke-linecap="round" stroke-linejoin="round" stroke-width="3.2"/><path d="m205.592 90.707h6.265" stroke-linecap="round" stroke-linejoin="round" stroke-width="3.2"/><path d="m219.766 90.707h6.265" stroke-linecap="round" stroke-linejoin="round" stroke-width="3.2"/><path d="m191.419 97.9727h6.265" stroke-linecap="round" stroke-linejoin="round" stroke-width="3.2"/><path d="m205.592 97.9727h6.265" stroke-linecap="round" stroke-linejoin="round" stroke-width="3.2"/><path d="m219.766 97.9727h6.265" stroke-linecap="round" stroke-linejoin="round" stroke-width="3.2"/><path d="m200.201 57.5021 6.664 5.5781 12.511-13.4968" stroke-linecap="round" stroke-linejoin="round" stroke-width="3.2"/><path d="m200.311 17.6104h16.828" stroke-linecap="round" stroke-width="3.2"/><path d="m188.225 4.61719v26.09741h41v-26.09741l-6.603 1.91202-6.916-1.91202-6.981 1.91202-6.982-1.91202-6.915 1.91202z" fill="#fcf2e7" stroke-linecap="round" stroke-linejoin="round" stroke-width="3.2"/><path d="m203.225 105.399h11v59h-11z" fill="#4f5876" stroke-width="3.2"/><path d="m181.225 46.3994c0-3.3137 2.686-6 6-6h43c3.314 0 6 2.6863 6 6v39 38.9996c0 3.314-2.686 6-6 6h-43c-3.314 0-6-2.686-6-6z" fill="#4f5876" stroke-width="3.2"/><path d="m188.225 85.3994c0-1.6568 1.343-3 3-3h35c1.657 0 3 1.3432 3 3v27.9996 28c0 1.657-1.343 3-3 3h-35c-1.657 0-3-1.343-3-3z" fill="#fdf3e8" stroke-width="3.2"/><path d="m198.225 82.8994v60.9996" stroke-linecap="round" stroke-width="3.2"/><path d="m181.225 36.3994c0-3.3137 2.686-6 6-6h43c3.314 0 6 2.6863 6 6v39 38.9996c0 3.314-2.686 6-6 6h-43c-3.314 0-6-2.686-6-6v-34.7054z" fill="#4f5876" stroke-width="3.2"/><path d="m188.225 40.3994c0-1.1046.895-2 2-2h37c1.104 0 2 .8954 2 2v16 16c0 1.1046-.896 2-2 2h-37c-1.105 0-2-.8954-2-2z" fill="#29c489" stroke-width="3.2"/><path d="m195.869 162.399c-1.453 0-2.917.264-4.11 1.058-1.708 1.137-3.534 2.898-3.534 4.942h41c0-2.044-1.826-3.805-3.535-4.942-1.192-.794-2.656-1.058-4.109-1.058z" fill="#4f5876" stroke-linecap="round" stroke-linejoin="round" stroke-width="3.2"/><path d="m191.419 83.2803h6.265" stroke-linecap="round" stroke-linejoin="round" stroke-width="3.2"/><path d="m205.592 83.2803h6.265" stroke-linecap="round" stroke-linejoin="round" stroke-width="3.2"/><path d="m219.766 83.2803h6.265" stroke-linecap="round" stroke-linejoin="round" stroke-width="3.2"/><path d="m206.651 104.688c-1.029 0-1.732.653-2.098 1.229-.379.595-.561 1.319-.561 2.036 0 .716.182 1.441.561 2.036.366.575 1.069 1.228 2.098 1.228h4.147c1.03 0 1.733-.653 2.099-1.228.378-.595.56-1.32.56-2.036 0-.717-.182-1.441-.56-2.036-.366-.576-1.069-1.229-2.099-1.229z" fill="#fed42b" stroke-linecap="round" stroke-linejoin="round" stroke-width="3.2"/><path d="m192.478 104.688c-1.029 0-1.732.653-2.098 1.229-.379.595-.561 1.319-.561 2.036 0 .716.182 1.441.561 2.035.366.576 1.069 1.229 2.098 1.229h4.147c1.03 0 1.733-.653 2.099-1.229.378-.594.56-1.319.56-2.035 0-.717-.182-1.441-.56-2.036-.366-.576-1.069-1.229-2.099-1.229z" fill="#f84e57" stroke-linecap="round" stroke-linejoin="round" stroke-width="3.2"/><path d="m220.825 104.688c-1.03 0-1.733.653-2.099 1.229-.379.595-.56 1.319-.56 2.036 0 .716.181 1.441.56 2.036.366.575 1.069 1.228 2.099 1.228h4.147c1.029 0 1.732-.653 2.098-1.228.379-.595.561-1.32.561-2.036 0-.717-.182-1.441-.561-2.036-.366-.576-1.069-1.229-2.098-1.229z" fill="#29c489" stroke-linecap="round" stroke-linejoin="round" stroke-width="3.2"/><path d="m191.419 90.707h6.265" stroke-linecap="round" stroke-linejoin="round" stroke-width="3.2"/><path d="m205.592 90.707h6.265" stroke-linecap="round" stroke-linejoin="round" stroke-width="3.2"/><path d="m219.766 90.707h6.265" stroke-linecap="round" stroke-linejoin="round" stroke-width="3.2"/><path d="m191.419 97.9727h6.265" stroke-linecap="round" stroke-linejoin="round" stroke-width="3.2"/><path d="m205.592 97.9727h6.265" stroke-linecap="round" stroke-linejoin="round" stroke-width="3.2"/><path d="m219.766 97.9727h6.265" stroke-linecap="round" stroke-linejoin="round" stroke-width="3.2"/><path d="m200.201 57.5021 6.664 5.5781 12.511-13.4968" stroke-linecap="round" stroke-linejoin="round" stroke-width="3.2"/><path d="m200.311 17.6104h16.828" stroke-linecap="round" stroke-width="3.2"/><path d="m104.111 154.41c-.394.156-.834.149-1.224-.019-.389-.168-.696-.485-.852-.879l-1.411-3.562c-.326-.822.076-1.751.898-2.077l1.781-.705c3.082-1.222 7.547-1.333 11.657-.209 4.192 1.148 8.66 3.767 11.011 8.683 1.246 2.606 2.153 5.013 2.702 7.239 1.033.063 2.053.208 3.034.443 1.937.465 3.927 1.335 5.487 2.845 1.634 1.58 2.631 3.71 2.678 6.244.008.424-.153.834-.447 1.14-.294.305-.698.481-1.122.489l-3.831.072c-.424.008-.834-.153-1.14-.447-.306-.295-.482-.699-.49-1.123-.012-.643-.217-1.012-.536-1.322-.393-.38-1.11-.789-2.239-1.06-.307-.074-.63-.134-.965-.179-.53 3.095-2.111 5.523-4.413 7.338-1.881 1.484-4.132 1.74-6.069 1.122-1.839-.586-3.356-1.931-4.196-3.619-.874-1.755-1.047-3.966-.008-6.066 1.011-2.043 2.933-3.524 5.363-4.491.586-.233 1.195-.439 1.819-.616-.419-1.417-1.057-3.065-1.971-4.976-1.204-2.518-3.616-4.138-6.523-4.934-2.991-.818-5.85-.576-7.212-.037z" fill="#f84e57" stroke-linecap="square" stroke-linejoin="round" stroke-width="3.2"/><path d="m.678326 2.15867h9.01244v12.1733h-9.01244z" fill="#f84e57" stroke-linejoin="round" stroke-width="3.2" transform="matrix(.462609 -.886562 -.886562 -.462609 26.1985 104.422)"/><path d="m102.167 34.9675c.124.5582.537 1.0076 1.082 1.1788.546.1712 1.142.0382 1.563-.349l2.379-2.1881 3.217.3067c.57.0543 1.124-.1994 1.456-.6654.331-.4661.389-1.0736.151-1.5935l-1.346-2.9388 1.286-2.9654c.227-.5247.158-1.1309-.183-1.5901-.341-.4593-.901-.7017-1.469-.6359l-3.211.3719-2.423-2.1395c-.428-.3785-1.026-.4995-1.569-.3173-.542.1823-.945.64-1.058 1.2006l-.639 3.1685-2.7832 1.6432c-.4925.2907-.7923.8222-.7866 1.394.0058.5719.3164 1.0972.8147 1.3778l2.8161 1.5865z" fill="#fff" stroke-linejoin="round" stroke-width="3.2"/><path d="m242.692 58.8008c-.27-.3275-.398-.7488-.357-1.1712s.248-.8112.575-1.081l3.459-2.8488c.682-.5618 1.691-.4642 2.252.2179l1.425 1.7296c2.42 2.9382 4.132 7.8087 4.352 12.7428.224 5.0267-1.077 10.8538-5.631 15.1633l-1.003-1.0594 1.003 1.0594c-2.507 2.3721-4.902 4.268-7.216 5.6769.323 1.2207.543 2.4598.637 3.6836.175 2.2913-.078 4.7656-1.171 6.9885-1.142 2.3226-3.1 4.1466-5.835 5.0846-.401.138-.841.11-1.222-.076-.381-.187-.673-.517-.81-.918l-1.454-4.2391c-.138-.4014-.111-.841.076-1.2222.186-.3812.516-.6727.918-.8104.78-.2678 1.174-.6785 1.434-1.2085.31-.6303.511-1.6272.405-3.0133-.035-.4597-.102-.9373-.2-1.426-3.669.5909-6.96-.2765-9.819-2.1968-2.247-1.5088-3.299-3.8353-3.306-6.1305-.007-2.1807.915-4.2826 2.442-5.7739 1.585-1.5491 3.901-2.5004 6.521-2.111 2.55.379 4.833 1.9386 6.754 4.2635.519.6293 1.012 1.303 1.472 2.0101 1.499-1.0015 3.191-2.3595 5.094-4.161 2.446-2.3138 3.397-5.6679 3.237-9.2413-.163-3.6683-1.473-6.8246-2.607-8.2022zm-13.765 24.7877c.456.2941.916.526 1.391.6909-.745-.7087-1.205-.8091-1.281-.8204-.005-.0008-.01-.0014-.014-.0018-.003.0028-.006.0061-.01.0101-.03.029-.061.071-.086.1212z" fill="#fed42b" stroke-linecap="square" stroke-linejoin="round" stroke-width="3.2"/><path d="m.924397 2.06531h8.00569v10.6191h-8.00569z" fill="#fff" stroke-linejoin="round" stroke-width="3.2" transform="matrix(.356534 -.934282 -.934282 -.356534 143.447 138.12)"/><path d="m251.224 120.118c-.244.517-.193 1.125.133 1.595.326.469.878.729 1.448.681l3.221-.27 2.354 2.215c.417.391 1.011.531 1.559.366.547-.165.965-.61 1.095-1.167l.738-3.146 2.834-1.555c.502-.275.818-.797.83-1.369.013-.571-.281-1.106-.771-1.403l-2.764-1.674-.603-3.175c-.107-.562-.505-1.024-1.045-1.213-.54-.188-1.14-.074-1.573.3l-2.446 2.112-3.207-.408c-.567-.072-1.13.164-1.476.619-.346.456-.422 1.061-.201 1.588l1.253 2.98z" fill="#fff" stroke-linejoin="round" stroke-width="3.2"/></g></g><path clip-rule="evenodd" d="m2.75635 168.473c0-.844.71634-1.528 1.6-1.528h261.28665c.884 0 1.6.684 1.6 1.528 0 .843-.716 1.527-1.6 1.527h-261.28665c-.88366 0-1.6-.684-1.6-1.527z" fill="#000" fill-rule="evenodd"/></svg>
